<svg id="Calque" data-name="Calque" xmlns="http://www.w3.org/2000/svg" viewBox="0 0 288 288"><path d="M190.49,145a1.77,1.77,0,0,1,1.24,1.33,2.33,2.33,0,0,1-.31,2,13.31,13.31,0,0,1-1.64,1.88,19.77,19.77,0,0,1-2.26,1.82q-5.58,3.9-11.18,7.74a51.93,51.93,0,0,1-8.67,4.93,18.23,18.23,0,0,1-4.61,1.47,6.9,6.9,0,0,1-4.17-.67,3.41,3.41,0,0,1-2-2.95,21.88,21.88,0,0,1,.52-6.75,56.67,56.67,0,0,1,3.8-10.26c1.71-3.7,3.68-7.26,5.68-10.8a2.45,2.45,0,0,0,.53-1.51c-.36.26-.62.43-.85.63q-7.5,6.62-15,13.23c-6.31,5.57-12.7,11.05-19.43,16.12a94.65,94.65,0,0,1-17,10.41,53.45,53.45,0,0,1-10.94,3.91,42.24,42.24,0,0,1-13.91,1,37.23,37.23,0,0,1-9.64-2.4,28.87,28.87,0,0,1-12.83-10,20.66,20.66,0,0,1-3.62-8c0-.23-.11-.45-.17-.68a35.93,35.93,0,0,1-.92-9.91c0-1.85.16-3.7.3-5.54a43.42,43.42,0,0,1,1.25-6.68,81.62,81.62,0,0,1,11.39-25.44,125.27,125.27,0,0,1,12-15.43,145.71,145.71,0,0,1,17.78-16.72,177.42,177.42,0,0,1,17.6-12.33c3.79-2.32,7.67-4.46,11.63-6.47s7.74-3.72,11.71-5.37A125.76,125.76,0,0,1,159,49.09c1.59-.47,3.18-1,4.79-1.35a44.26,44.26,0,0,1,15-1.26,20.26,20.26,0,0,1,6,1.55A11.65,11.65,0,0,1,190.43,53a17.79,17.79,0,0,1,2.08,5.56,10.49,10.49,0,0,1-.11,4.14,19.11,19.11,0,0,1-2.8,6.74,32.25,32.25,0,0,1-6.35,6.94,52.78,52.78,0,0,1-16.15,9,92.72,92.72,0,0,1-15.41,4c-3.18.55-6.39,1-9.61,1.29-3,.24-5.9.44-8.87.41l-7.49,0a3.55,3.55,0,0,1-2.33-.74,1.39,1.39,0,0,1-.27-2.26,5.22,5.22,0,0,1,2.72-1.81,20.46,20.46,0,0,1,5.88-.75,80,80,0,0,0,9.28-.49c3.46-.31,6.88-.8,10.29-1.45a88.56,88.56,0,0,0,19.68-6,39.63,39.63,0,0,0,9.56-5.83,20.77,20.77,0,0,0,5.11-6.51,9.09,9.09,0,0,0,1-4.41,6.59,6.59,0,0,0-1.17-3.64,11,11,0,0,0-4.62-3.87,15.92,15.92,0,0,0-5.76-1.4,38.24,38.24,0,0,0-11.66,1.4,105.6,105.6,0,0,0-14.67,5A148.45,148.45,0,0,0,129.1,68.36a186.89,186.89,0,0,0-17.12,12q-4.82,3.77-9.44,7.75A126,126,0,0,0,93.37,97,106.62,106.62,0,0,0,80.06,114.6a77.38,77.38,0,0,0-10.14,24.63,41.19,41.19,0,0,0-1,10.2,28.11,28.11,0,0,0,2.2,10.38,17.22,17.22,0,0,0,5.93,7.36,31,31,0,0,0,18.63,5.66,39,39,0,0,0,10.22-1.74,59.23,59.23,0,0,0,13.14-5.85,119,119,0,0,0,14.52-10.19c4-3.26,7.86-6.75,11.74-10.19,2.74-2.42,5.5-4.81,8.23-7.24,4.36-3.87,8.69-7.77,13.05-11.64q5.4-4.78,10.85-9.52a13.4,13.4,0,0,0,2.41-2.85c1.28-2,2.53-4,3.83-6q6.6-10,13.25-20,5.83-8.7,11.8-17.31c1.89-2.74,3.9-5.4,5.89-8.07a23.44,23.44,0,0,1,3.52-3.73,5.84,5.84,0,0,1,3.68-1.42,2.54,2.54,0,0,1,.55,0,.67.67,0,0,1,.61.64,2.76,2.76,0,0,1-.35,1.74c-.52,1-1,2-1.66,2.88-1.17,1.78-2.41,3.51-3.62,5.26-4.36,6.32-8.79,12.6-13.06,19q-9.84,14.7-19.48,29.54c-4.18,6.44-8.25,13-12.3,19.48A111.61,111.61,0,0,0,165,150.33a26.64,26.64,0,0,0-2.06,6.6,4.78,4.78,0,0,0,0,1.51,1.91,1.91,0,0,0,2.68,1.58,8.8,8.8,0,0,0,1.28-.52c.45-.22.89-.48,1.33-.74,5.43-3.09,10.59-6.6,15.71-10.17,1.29-.9,2.63-1.73,4-2.51A24.42,24.42,0,0,1,190.49,145Z"/><path d="M40.14,214.85a28.18,28.18,0,0,1-3,0,6,6,0,0,1-4.83-3.28,3.12,3.12,0,0,1,0-2.7,2.79,2.79,0,0,1,2-1.51,6,6,0,0,1,1.52-.15c1.62,0,3.24,0,4.85.07a28,28,0,0,1,3.29.45,7.45,7.45,0,0,0,2.21,0c2.07-.24,4.14-.45,6.2-.7,1.61-.19,3.21-.41,4.81-.62l3.3-.44,5.36-.71,7-1,6.86-.95,7.41-1c2.15-.31,4.29-.65,6.44-1l4.66-.67,8.64-1.25,9.2-1.27c1.56-.21,3.11-.45,4.66-.67l7.14-1,7.84-1,2.89-.35c2.15-.25,4.31-.52,6.46-.76l6.07-.67c2.89-.32,5.78-.66,8.67-1,1.84-.21,3.68-.4,5.51-.65,3.16-.41,6.32-.87,9.48-1.3l7.14-.94c2.2-.3,4.39-.63,6.59-.94,3-.42,6-.83,8.92-1.28,3.15-.47,6.3-1,9.45-1.45,3.37-.54,6.75-1.07,10.12-1.64q3.83-.63,7.64-1.34,5.12-.93,10.21-1.94c3.3-.66,6.59-1.37,9.9-2.05a13.38,13.38,0,0,1,4.55-.1,5.53,5.53,0,0,1,4.39,3,4.69,4.69,0,0,1,.52,2.41,2.09,2.09,0,0,1-1.8,2.13c-.79.12-1.53.35-2.29.53a4.31,4.31,0,0,1-1.24.11,9.86,9.86,0,0,1-4.44-.88,1.84,1.84,0,0,0-.94-.1c-2.81.25-5.62.5-8.43.77-2,.19-3.95.41-5.93.63-2.89.33-5.78.68-8.67,1-1.75.21-3.49.45-5.23.66l-8.11,1c-1.56.2-3.12.43-4.68.63l-5.63.74c-3.21.43-6.41.87-9.62,1.29-.91.13-1.83.21-2.75.33-1.79.23-3.57.48-5.36.7-1.28.16-2.57.26-3.85.44-4.12.61-8.27.92-12.4,1.44-3.21.4-6.41.84-9.62,1.27-2.88.39-5.77.77-8.65,1.18-3.66.52-7.31,1.07-11,1.59l-8.79,1.23c-1.37.19-2.74.44-4.11.64l-8.91,1.28-4.11.62c-2.74.43-5.48.84-8.22,1.28L91,206.44c-1.19.19-2.38.34-3.56.53q-5.48.9-10.94,1.82c-4.28.73-8.56,1.44-12.84,2.21-3,.54-5.89,1.15-8.84,1.73l-9,1.77A25.54,25.54,0,0,1,40.14,214.85Z"/><path d="M127.87,249.91a14.19,14.19,0,0,1-1.71-.17,7.2,7.2,0,0,1-5.59-5.67,9.54,9.54,0,0,1,.3-5.19,7.32,7.32,0,0,1,6.45-5.11,8.45,8.45,0,0,1,3.83.34,7.23,7.23,0,0,1,5.09,5.69,8.89,8.89,0,0,1-.21,4.66A7.81,7.81,0,0,1,127.87,249.91Zm-4.45-8.54h0c0,.46,0,.92,0,1.38a6.89,6.89,0,0,0,.94,3,4.55,4.55,0,0,0,4.64,2.37,4.35,4.35,0,0,0,4-3.44,9,9,0,0,0-.13-5.46,8.79,8.79,0,0,0-.92-1.84c-1.4-2.19-4.68-2.36-6.41-1.12a5.17,5.17,0,0,0-2.16,3.71A12.71,12.71,0,0,0,123.42,241.37Z"/><path d="M164.7,248.27a2.79,2.79,0,0,1,.39-.1,2.11,2.11,0,0,0,1.76-1.38c.4-.89.8-1.77,1.18-2.66l3.87-9.2s0-.09,0-.13c.49-1.13.57-1.17,1.94-1a4,4,0,0,1,.24.46q2,5.7,3.92,11.4c0,.08.06.17.1.26.62,1.69.62,1.69,2.31,2.39l.11,1c-.17.1-.29.22-.41.22-.69.06-1.38.11-2.07.11-1.06,0-2.13,0-3.19-.07-.54,0-.76-.28-.69-.81a.81.81,0,0,1,.35-.53,4.66,4.66,0,0,1,.88-.26c.06-.93-.16-1.73-1-3.66a42.55,42.55,0,0,0-4.4-.09,13,13,0,0,0-1.18,3.6l1.35.43v1.24a6.48,6.48,0,0,1-.87.14c-1.34,0-2.68,0-4-.1C164.48,249.55,164.37,249.28,164.7,248.27Zm8.86-6a1.31,1.31,0,0,0-.09-1.12c-.23-.69-.46-1.39-.72-2.07a2.89,2.89,0,0,0-.4-.57,32.09,32.09,0,0,0-1.43,3.76Z"/><path d="M76.79,249.43l-.07-1c.15-.13.21-.23.28-.23a2.6,2.6,0,0,0,2.22-1.83c.72-1.7,1.47-3.39,2.19-5.09.91-2.17,1.81-4.35,2.72-6.52.07-.17.14-.34.22-.51a1.07,1.07,0,0,1,1.14-.61.89.89,0,0,1,.87.74c.47,1.36.94,2.71,1.4,4.06L90.33,246c0,.13.11.25.15.39.29,1.07.87,1.83,2,1.86a1.17,1.17,0,0,1,.2,1.21,21.52,21.52,0,0,1-6.15.06l-.17-1,1.3-.47a12.17,12.17,0,0,0-1.1-3.69c-1.41,0-2.88-.08-4.31,0a6.69,6.69,0,0,0-1,3.6l1.2.39.06,1.13a4.63,4.63,0,0,1-.66.22A28.2,28.2,0,0,1,76.79,249.43Zm7.81-10.89a21.24,21.24,0,0,0-1.47,3.58,4.34,4.34,0,0,0,2.7-.06A12.84,12.84,0,0,0,84.6,238.54Z"/><path d="M157.47,234.38a10.53,10.53,0,0,1,0,4.23,1.61,1.61,0,0,1-.43.24c-.56.14-.79,0-1-.46-.11-.25-.14-.53-.25-.79a3.1,3.1,0,0,0-3-2.2,5.19,5.19,0,0,0-5.49,4,8.09,8.09,0,0,0,.94,6.55,4.86,4.86,0,0,0,5.16,2.18,3.61,3.61,0,0,0,2.5-1.82q.39-.66.72-1.35a.76.76,0,0,1,1.23-.38,3.15,3.15,0,0,1,.29.25,36,36,0,0,1-.61,4.09,6.49,6.49,0,0,1-2.85.84,15.51,15.51,0,0,1-3.73.12,7.49,7.49,0,0,1-6.86-6.21,8.18,8.18,0,0,1,1.22-6.37,8.32,8.32,0,0,1,5-3.22,14.24,14.24,0,0,1,6.46,0A4.71,4.71,0,0,1,157.47,234.38Z"/><path d="M109.81,235.76l-1.41-.46v-1.05c.46-.33,3.07-.39,5.44-.18a.87.87,0,0,1,.25,1.1c-.08.06-.15.15-.23.16a2.39,2.39,0,0,0-1.93,1.58c-.46,1.11-1,2.2-1.42,3.31-1,2.53-2,5.08-3,7.62-.17.43-.33.86-.54,1.27a1.27,1.27,0,0,1-1.51.68.73.73,0,0,1-.42-.31,7.09,7.09,0,0,1-.43-1l-3.75-10.14c-.09-.26-.19-.52-.29-.78-.66-1.67-.66-1.67-2.32-2.24a1,1,0,0,1,0-1.14,29,29,0,0,1,6.13,0l.16,1c-.11.12-.16.22-.23.25-.34.14-.68.26-1.08.41a7.09,7.09,0,0,0,.2,1.11c.93,2.64,1.82,5.31,2.85,7.88.43,0,.43-.25.52-.43A57.93,57.93,0,0,0,109.81,235.76Z"/><path d="M191.65,235.74a2.75,2.75,0,0,0-.48-.07c-2,0-2.51.22-3.13,2.19a5.83,5.83,0,0,1-.32.71.92.92,0,0,1-1.15-.3,13.74,13.74,0,0,1,.07-4.17,2.47,2.47,0,0,1,.5-.09h12.51a2.13,2.13,0,0,1,.22.66c0,1.06-.05,2.12-.09,3.18a.92.92,0,0,1-.05.28.75.75,0,0,1-.69.57.6.6,0,0,1-.65-.42c-.22-.51-.4-1-.59-1.55a1.45,1.45,0,0,0-1.24-1c-.59-.07-1.19-.08-1.68-.11-.46.34-.38.74-.38,1.09,0,3.14,0,6.29,0,9.43,0,.32,0,.64,0,1a.77.77,0,0,0,.63.79c.48.14.95.33,1.46.5l.05.93c-.13.1-.19.19-.27.21a6.73,6.73,0,0,1-1.09.12c-1.39,0-2.77,0-4.16-.06a2.23,2.23,0,0,1-.82-.09.9.9,0,0,1-.44-.46.56.56,0,0,1,.27-.71,3.72,3.72,0,0,1,.5-.2l1-.42c.05-.4.12-.76.13-1.12A85.39,85.39,0,0,0,191.65,235.74Z"/><path d="M207,134a2.12,2.12,0,0,1,2.24,1.29,1.22,1.22,0,0,1-.06,1.31,8,8,0,0,1-1.18,1.35,41.09,41.09,0,0,1-6.15,4.22,5.8,5.8,0,0,1-.88.4,2.18,2.18,0,0,1-2.69-.81,2.11,2.11,0,0,1,.05-2.8,8,8,0,0,1,1.59-1.53c1.4-1,2.84-1.89,4.3-2.77A4,4,0,0,1,207,134Z"/></svg>